<svg xmlns="http://www.w3.org/2000/svg" viewBox="0 0 500 500"><defs><style>.cls-1,.cls-11{fill:none;}.cls-2{fill:#59a1d1;}.cls-3{fill:#6dd6b4;}.cls-4{fill:#644dbd;}.cls-10,.cls-5,.cls-8,.cls-9{fill:none;}.cls-5{stroke:#644dbd;}.cls-10,.cls-11,.cls-5,.cls-8,.cls-9{stroke-miterlimit:10;}.cls-6{fill:#fffefd;}.cls-7{fill:#ff84b5;}.cls-10,.cls-11,.cls-8,.cls-9{stroke:#000;}.cls-8{stroke-width:0.75px;}.cls-9{stroke-width:0.5px;}.cls-12{fill:#020202;}.cls-13{fill:#0c0c0c;}.cls-14{fill:#fffdfd;}</style></defs><g id="OBJECTS"><circle class="cls-2" cx="101.68" cy="135.33" r="17.93"/><circle class="cls-2" cx="146.39" cy="86" r="42.84" transform="translate(-21.51 60.79) rotate(-21.89)"/><path class="cls-2" d="M406.75,262.5c-3.72-6.81-9.16-13.1-17.13-16.37-11.62-6.71-22.95-8-20.54-24.08,14.69-35.92,7-77.07-22.44-97.88-35.72-25.21-93.51-23.38-144-6.77-42.42,14-53.76,43.82-52.74,57.93,1,13.27,9.7,25-8.21,35.07-24.26,10.57-67.2,60.48-22.1,107.53,23.82,24.86,21.1,33.44,19.45,50s13.17,53.08,69.52,43.49,60.06-8.07,79.89,1.58,55.62,18.27,80.69-1.58c42.26-33.45-2.27-77.11,18.08-86.49C408.92,314.94,417.6,282.32,406.75,262.5Z"/><circle class="cls-2" cx="432.43" cy="375.66" r="26.97" transform="translate(-8.16 741.73) rotate(-80.7)"/><circle class="cls-2" cx="80.36" cy="405.48" r="18.66"/><path class="cls-3" d="M277.92,90.87l10.23-3.39a1.25,1.25,0,0,0-.67-2.41l-10.22,3.39a1.27,1.27,0,0,0-.87,1.54,1.25,1.25,0,0,0,1.53.87Z"/><path class="cls-3" d="M274.86,78.77a75,75,0,0,1,5.27-7.1,1.28,1.28,0,0,0,0-1.76,1.26,1.26,0,0,0-1.77,0,83.53,83.53,0,0,0-5.66,7.59,1.25,1.25,0,0,0,2.16,1.27Z"/><path class="cls-3" d="M260.27,68.61c.07-1.07.18-2.14.31-3.2l0-.19c0,.1,0,.11,0,0s0-.29.07-.44.07-.49.11-.74c.09-.54.19-1.08.29-1.62a1.25,1.25,0,0,0-2.41-.66,54.07,54.07,0,0,0-.89,6.83A1.26,1.26,0,0,0,259,69.86a1.28,1.28,0,0,0,1.25-1.25Z"/><path class="cls-3" d="M239.38,64.29a101.17,101.17,0,0,0,3,9.78,1.27,1.27,0,0,0,1.53.87,1.25,1.25,0,0,0,.88-1.53,101.36,101.36,0,0,1-3-9.79,1.25,1.25,0,0,0-2.41.67Z"/><path class="cls-3" d="M222.58,72l4.26,5.18a1.26,1.26,0,0,0,1.77,0,1.3,1.3,0,0,0,0-1.77l-4.26-5.18a1.27,1.27,0,0,0-1.77,0,1.3,1.3,0,0,0,0,1.77Z"/><path class="cls-3" d="M211.53,90.74l3.79,1.09c.57.16,1.15.32,1.72.5a7.3,7.3,0,0,1,1.53.62,1.25,1.25,0,0,0,1.26-2.16,17.83,17.83,0,0,0-3.71-1.33l-3.93-1.13a1.25,1.25,0,0,0-.66,2.41Z"/><path class="cls-1" d="M73.75,324s19.16,22.46,36.44,25.28,21.95-5.5,25.06-11.15S142.67,316,142.67,316l-26.59-6.7s.49,8-2.74,13.2S96,324.85,83.48,314.4Z"/><path d="M73.3,324.45A103.5,103.5,0,0,0,82.79,334c6.17,5.59,13,10.85,20.78,14A34.75,34.75,0,0,0,117,350.48a21.38,21.38,0,0,0,10.54-2.56c4.65-2.68,7.62-7.62,9.61-12.46a151.64,151.64,0,0,0,6.11-19.33.64.64,0,0,0-.44-.77l-23.27-5.87-3.33-.83a.63.63,0,0,0-.79.6,28.3,28.3,0,0,1-.29,5.74,22.37,22.37,0,0,1-1.25,4.89,7.17,7.17,0,0,1-2.08,3.29c-1.77,1.32-4.31,1.33-6.4,1.13a30.67,30.67,0,0,1-9.51-2.76,52.49,52.49,0,0,1-12-7.59.66.66,0,0,0-.89,0l-9.74,9.61a.63.63,0,0,0,.89.88l9.74-9.6H83c6.1,5,13.56,9.54,21.54,10.61,2.41.32,5.14.35,7.34-.86,2.51-1.38,3.48-4.66,4.07-7.27a29.18,29.18,0,0,0,.71-8.07l-.79.6,23.27,5.87,3.33.83-.44-.76c-1.41,5.37-3,10.74-4.83,16-1.77,5-4.15,10.35-8.37,13.75-6.2,5-15.78,4.43-22.91,2.05-7.8-2.6-14.71-7.77-20.84-13.13a105.91,105.91,0,0,1-10.93-10.88C73.66,323,72.78,323.85,73.3,324.45Z"/><path class="cls-1" d="M71.46,303l13.66,10.74-11.6,13.05L61,313.35S70.46,302.22,71.46,303Z"/><path class="cls-4" d="M70.91,303.55l13.66,10.73v-1.09L73,326.24h1.1L61.56,312.8v1.09c1.45-1.7,2.93-3.38,4.44-5,1.09-1.19,2.19-2.36,3.35-3.48a17.54,17.54,0,0,1,1.44-1.28,3.41,3.41,0,0,0,.44-.3c.23-.24.23.09-.16-.14a.78.78,0,0,0,.78-1.34c-.87-.52-1.9.47-2.51,1a43.56,43.56,0,0,0-3.61,3.58q-2.7,2.89-5.26,5.91a.79.79,0,0,0,0,1.09L73,327.34a.79.79,0,0,0,1.1,0l11.59-13.06a.76.76,0,0,0,0-1.09L72,302.45C71.23,301.85,70.13,302.93,70.91,303.55Z"/><polygon class="cls-4" points="84.48 313.17 80.54 310.14 69.55 322.52 73.52 326.79 84.48 313.17"/><line class="cls-5" x1="66.37" y1="302.29" x2="80.36" y2="314.72"/><line class="cls-5" x1="63.16" y1="305.91" x2="76.67" y2="317.91"/><line class="cls-5" x1="60.18" y1="309.26" x2="73.69" y2="321.27"/><path class="cls-6" d="M72.32,299,57,281.4s-1.78-3.06-4-1.06-10.64,8.77-27,26.47c-.65.71-9.77,10.76,6.8,8.46,2.52-.35,18.4-4.24,18.4-4.24s6,4.11,8,5.18c1.06.55,1.35.76,4.17-2.31,3.51-3.83,8-8.35,10.28-12.36C73.93,301,73.66,300.57,72.32,299Z"/><path class="cls-7" d="M73.15,298.22,60.22,283.36c-.75-.86-1.48-1.74-2.25-2.58-.39-.43.19.27-.24-.32a4.63,4.63,0,0,0-2.48-1.87c-2.36-.58-4.89,2.46-6.52,3.9A297.71,297.71,0,0,0,25.13,306,13.55,13.55,0,0,0,22,311.14c-1,3.4,1.69,5.2,4.76,5.55,4.13.46,8.28-.63,12.27-1.55s7.84-1.84,11.75-2.8l.76-.18-.9-.12q2.08,1.44,4.21,2.83c1.42.94,3.12,2.4,4.83,2.78,2.14.47,4-2.38,5.24-3.67,2.5-2.71,5-5.38,7.31-8.29.9-1.16,2.33-2.62,2.68-4.08s-.94-2.5-1.71-3.39c-1-1.14-2.63.52-1.65,1.65a7.07,7.07,0,0,0,.91,1.12s.25.43.2.07-.07.07-.16.2-.26.42-.39.62c-.28.43-.57.85-.87,1.27A62.17,62.17,0,0,1,67,308.26c-1.41,1.57-2.86,3.11-4.3,4.66a22.55,22.55,0,0,1-1.93,2c-.16.14-.33.27-.51.4s-.08.07-.19.07c.16,0,0,0,0,0s-.29-.15-.43-.22c-.52-.28-1-.59-1.52-.9-1.2-.75-2.39-1.54-3.58-2.33S52,309.67,50.61,310c-4.31.94-8.57,2.08-12.86,3.06-1.78.41-3.58.88-5.39,1.13-2.18.31-5.64.89-7.65-.41a5.27,5.27,0,0,1-.45-.41,1.27,1.27,0,0,1-.19-.48,3.18,3.18,0,0,1,.29-1.59,13.75,13.75,0,0,1,1.79-2.88c1.66-2,3.53-3.85,5.32-5.74,2.73-2.88,5.5-5.73,8.31-8.52,3.5-3.48,7.08-6.88,10.78-10.14.91-.81,1.83-1.6,2.74-2.4.55-.47,1.07-1,1.81-.53a5.14,5.14,0,0,1,1.07,1.21c2.14,2.66,4.5,5.17,6.74,7.74l8.1,9.3.48.56C72.49,301,74.13,299.35,73.15,298.22Z"/><path class="cls-7" d="M44.79,304.6l-.61,6.59-.09.95a1.15,1.15,0,0,0,1.16,1.16,1.2,1.2,0,0,0,1.17-1.16l.62-6.59.08-.95A1.17,1.17,0,0,0,46,303.43a1.21,1.21,0,0,0-1.17,1.17Z"/><path class="cls-7" d="M39,304.2l-.41,8-.06,1.16a1.17,1.17,0,0,0,2.33,0l.42-8,.06-1.16A1.18,1.18,0,0,0,40.13,303,1.19,1.19,0,0,0,39,304.2Z"/><path class="cls-7" d="M54.33,294.81c2.86-.74,9.81,1.25,10.72,5.46s-6.22,1.79-6.22,1.79,2.47,6.09-1.37,7.56S48.62,296.3,54.33,294.81Z"/><path class="cls-1" d="M123.8,381.92S146,362.43,152.2,354.1s9.32-13.85,10.59-21.75,0-18.51,0-18.51l29-1.93s1.7,16.06,0,26.51-13.94,26.41-33.59,39.83S130.3,395,130.3,395Z"/><path d="M124.24,382.36c6.37-5.59,12.62-11.34,18.66-17.29,8.95-8.8,18.08-19.06,20.36-31.81a66.52,66.52,0,0,0,.15-19.42l-.62.63,25.36-1.7,3.59-.24-.62-.62a134.59,134.59,0,0,1,.67,19.15,37.28,37.28,0,0,1-1.65,11,42,42,0,0,1-4.95,9.42c-5.46,8.1-12.66,15-20.3,21a220.52,220.52,0,0,1-25.3,16.84c-2.36,1.37-4.74,2.71-7.18,3.94-.59.29-1.19.59-1.8.86l-.47.21.7.29-6.5-13.07c-.36-.72-1.44-.08-1.08.63l6.5,13.07a.64.64,0,0,0,.71.29,69.86,69.86,0,0,0,7.79-4,241.36,241.36,0,0,0,24.35-15.74,104.44,104.44,0,0,0,21.85-21.17,50.89,50.89,0,0,0,5.94-9.89,30.92,30.92,0,0,0,2.39-9.75,118.33,118.33,0,0,0-.42-23.12.65.65,0,0,0-.63-.63L166.38,313l-3.59.24c-.31,0-.67.27-.63.62a74.93,74.93,0,0,1,.29,16.26c-.78,7.73-4.14,14.36-8.57,20.63-6.46,9.13-15,16.68-23.23,24.18-2.41,2.21-4.84,4.41-7.29,6.57C122.75,382,123.64,382.89,124.24,382.36Z"/><path class="cls-1" d="M110.28,390.22,124,379.55l9.87,14.4-16.06,8.9S109.27,391,110.28,390.22Z"/><path class="cls-4" d="M110.82,390.77l13.72-10.67-1.22-.16,9.88,14.4.27-1-16.06,8.89,1.06.28q-2-2.73-3.82-5.53c-.9-1.37-1.8-2.75-2.61-4.18a16,16,0,0,1-.83-1.59,5,5,0,0,0-.2-.54c-.17-.25.13-.17-.19.15a.77.77,0,0,0-1.09-1.09c-.72.71,0,1.95.34,2.67a43.74,43.74,0,0,0,2.6,4.37q2.16,3.31,4.46,6.52a.8.8,0,0,0,1.06.27l16.06-8.89a.78.78,0,0,0,.28-1.06l-9.87-14.4a.79.79,0,0,0-1.22-.15l-13.71,10.67C109,390.29,110.05,391.37,110.82,390.77Z"/><polygon class="cls-4" points="123.29 380.04 119.4 383.13 128.76 396.78 133.86 393.95 123.29 380.04"/><line class="cls-5" x1="108.36" y1="394.99" x2="123.8" y2="384.41"/><line class="cls-5" x1="111.09" y1="398.98" x2="126.01" y2="388.75"/><line class="cls-5" x1="113.63" y1="402.68" x2="128.54" y2="392.45"/><path class="cls-6" d="M106.65,388.42,85.81,399.08s-3.39,1-2,3.63,5.94,12.43,19.18,32.56c.53.81,8.08,12.08,9.85-4.55.27-2.53.32-18.88.32-18.88s5.43-4.8,7-6.53c.79-.89,1.06-1.13-1.24-4.61-2.87-4.32-6.19-9.72-9.52-12.95C109,387.34,108.45,387.5,106.65,388.42Z"/><path class="cls-7" d="M106.06,387.42l-17.45,8.92c-1,.53-2.07,1-3.08,1.58-.56.3.14,0-.24.11a5.39,5.39,0,0,0-2.12,1.34c-2,2.18.3,5.22,1.39,7.33a321.25,321.25,0,0,0,16.5,27.72c1.36,2.08,2.76,4.25,4.89,5.63a4.36,4.36,0,0,0,3.61.71c1.65-.5,2.57-2.15,3.15-3.64,1.53-3.95,1.45-8.38,1.52-12.55.07-4,.1-8,.12-11.95v-.78l-.34.82c1.26-1.12,2.52-2.25,3.76-3.4s3.07-2.45,3.86-4c1-2-1.31-4.5-2.28-6-2-3-4-6.13-6.21-9-.92-1.17-2-2.95-3.37-3.67s-2.65.29-3.71.83c-1.34.68-.16,2.69,1.18,2,.42-.22.86-.41,1.29-.62s.53,0,.12-.18.11.14.16.2.35.35.51.53c.36.37.7.75,1,1.14a60.16,60.16,0,0,1,3.82,5.15c1.22,1.81,2.41,3.65,3.61,5.47.48.73,1,1.46,1.39,2.23q.17.31.3.63c.1.23.07.33.08.22s0,.05,0,0a3.52,3.52,0,0,0-.36.41c-.37.4-.76.79-1.15,1.17-1,1-2.06,2-3.11,2.9s-2.88,2-2.93,3.39c-.18,4.29,0,8.59-.13,12.88,0,1.88,0,3.77-.18,5.64a24.43,24.43,0,0,1-.94,5,5.74,5.74,0,0,1-1.37,2.6,1.17,1.17,0,0,1-1.14.34,3.68,3.68,0,0,1-1.46-.74,12.7,12.7,0,0,1-2.42-2.61c-4-5.62-7.58-11.69-11.1-17.65-2.38-4-4.66-8.08-6.8-12.23-.5-1-1-1.93-1.49-2.9-.4-.81-.44-1.33.37-1.86a8.14,8.14,0,0,1,1.12-.51c3.13-1.45,6.16-3.16,9.23-4.72l10.87-5.56.66-.34C108.57,388.75,107.39,386.73,106.06,387.42Z"/><path class="cls-7" d="M105.37,416.48l6.26,2.19.89.31a1.17,1.17,0,0,0,.62-2.25l-6.26-2.19-.89-.31a1.17,1.17,0,0,0-1.43.81,1.19,1.19,0,0,0,.81,1.44Z"/><path class="cls-7" d="M103.58,422l7.68,2.33,1.12.34a1.17,1.17,0,1,0,.62-2.25l-7.68-2.33-1.12-.34a1.17,1.17,0,0,0-1.43.81,1.19,1.19,0,0,0,.81,1.44Z"/><path class="cls-7" d="M98.2,404.86c0-2.95,3.58-9.21,7.88-9.08s.24,6.47.24,6.47,6.51-.93,7,3.15S98.26,410.77,98.2,404.86Z"/><path class="cls-1" d="M233.77,99.31a11,11,0,0,1-1.91-2.3c-1.82-2.62-3.71-2.65-3.27-.32.25,1.36,4.55,14.17,6.49,16.28s9.86,6.17,10.62,0-1.41-20.76-2.57-24.89c-1.24-4.43-2.54-3.47-2.62-2.23,0,0-.76-1.69-1.42-1.69s-1,1-1,1-.33-1.1-.8-1a1.16,1.16,0,0,0-1.06,1c-.11.67-.16,1.17-.16,1.17s-.69-1.36-1.18-1.3-.93-.08-.93,2.13.28,7.46.21,8.68-.24,3.08-.24,3.08l-.16.45"/><path class="cls-8" d="M238.87,105.14s-.37-4.5-2.56-4.82-2.95-1.15-4.45-3.31c-1.82-2.62-3.71-2.65-3.27-.32.25,1.36,4.55,14.17,6.49,16.28s9.86,6.17,10.62,0-1.4-20.76-2.57-24.89c-1.32-4.69-3.07-3.44-2.48-1.15s1.15,6.29,1.15,6.29"/><path class="cls-8" d="M233.88,99.32a40.35,40.35,0,0,0,.25-7.09c-.26-3.15-.31-7,.28-7.21s1.42,0,2,3,1,5.91,1,5.91"/><path class="cls-8" d="M239.38,93.73s-1.21-8.33-1.41-8.92c-.31-1-1.95-1.49-1.89,1.89"/><path class="cls-9" d="M240.45,86.49s-1.15-4.45-2.38-1.12"/><ellipse class="cls-7" cx="238.43" cy="121.34" rx="10.66" ry="9.46" transform="translate(-18.96 194.29) rotate(-42.8)"/><path class="cls-1" d="M231.78,129.62l.6-15.54c-.13.11-.26.2-.38.32s-.43.42-.64.64l-.53,13.77A9,9,0,0,0,231.78,129.62Z"/><path class="cls-1" d="M235.77,131.26l2.13-19.8c-.34.06-.67.13-1,.22l-2.08,19.39C235.13,131.15,235.45,131.21,235.77,131.26Z"/><path class="cls-1" d="M240.4,130.88l2.49-19c-.31-.11-.63-.21-.95-.29l-2.56,19.56A9.6,9.6,0,0,0,240.4,130.88Z"/><path class="cls-1" d="M244.64,128.47l2.28-13.55a7.4,7.4,0,0,0-.66-.82l-.17-.16-2.59,15.42A12.06,12.06,0,0,0,244.64,128.47Z"/><path class="cls-7" d="M172.43,162.18s23.48-1.37,33.44-10.69,14.27-15,18-22.72,6.59-14.49,15.44-12.14,12.74,13.89,7.23,32.11-19,35.73-26.46,40-25.44,12.57-25.44,12.57Z"/><path class="cls-1" d="M57.46,247.14s-8.58,0-9.64,1.49,3,2.12,6.89,2.22,12.07-.63,12.07-.63-5.19,3.7-4.13,5.5,5.91-1.27,9-3.81,7-7.46,7.8-8l-8.79-8.66-15.26,3.57-3.8.69s-3.38.69-3.35,1.18.91,1.11.91,1.11-1.58.76-1.5,1.43,1.51,1.16,1.51,1.16-1.94.68-1.73,1.54,2,1.49,3.15,1.49S57.46,247.14,57.46,247.14Z"/><path class="cls-10" d="M57.46,247.14s-8.58,0-9.64,1.49,3,2.12,6.89,2.22,12.07-.63,12.07-.63-5.19,3.7-4.13,5.5,5.91-1.27,9-3.81,7-7.46,7.8-8"/><path class="cls-10" d="M51.82,247.45s-4.24,0-4.49-1.4,4.38-1.8,9.78-2.26"/><path class="cls-10" d="M55.63,240.92s-7.79.52-8.06,2.17c-.15.95.85,1.32,3.39,1.33"/><path class="cls-10" d="M71.16,235.28S60.64,237.93,54.64,239s-6.29,1.21-6.39,1.93.79,1,1.57.86"/><path class="cls-3" d="M96.55,298.94s14,18.22,49.78,20.13S200.78,314,200.78,314s-5.33-55.34-14.1-71.31-53.1-18.22-65.05,2.4S96.55,298.94,96.55,298.94Z"/><path class="cls-1" d="M141.94,264.38c2.69,5.69,2.83,11.26.31,12.45s-6.74-2.44-9.44-8.13-2.83-11.25-.31-12.45S139.25,258.7,141.94,264.38Z"/><path class="cls-1" d="M125.41,281.31c1,6.2-.4,11.6-3.16,12s-5.8-4.22-6.8-10.43.4-11.6,3.16-12.05S124.41,275.1,125.41,281.31Z"/><path class="cls-1" d="M147.05,296.59c-3.15,5.44-7.65,8.73-10.07,7.34s-1.82-6.94,1.32-12.39,7.65-8.73,10.07-7.34S150.19,291.14,147.05,296.59Z"/><path class="cls-1" d="M164.88,304.39c2.3,5.85,2.06,11.42-.53,12.44s-6.57-2.9-8.86-8.75-2.06-11.43.53-12.45S162.58,298.53,164.88,304.39Z"/><path class="cls-1" d="M191.34,303.22c-1.57,6.09-5,10.46-7.74,9.76s-3.61-6.2-2-12.29,5-10.46,7.74-9.76S192.92,297.13,191.34,303.22Z"/><path class="cls-1" d="M178.06,283.08c1.34,6.14.21,11.6-2.51,12.2s-6-3.91-7.36-10S168,273.62,170.7,273,176.72,276.93,178.06,283.08Z"/><path class="cls-1" d="M188.4,265.24c2.7,5.68,2.83,11.26.31,12.45s-6.74-2.45-9.43-8.13-2.84-11.26-.32-12.45S185.71,259.55,188.4,265.24Z"/><path class="cls-1" d="M165.2,259.52c-.74,6.24-3.59,11-6.36,10.71s-4.41-5.65-3.67-11.9,3.59-11,6.35-10.71S165.94,253.27,165.2,259.52Z"/><path class="cls-1" d="M130.38,250.12c-3.15,5.44-7.65,8.73-10.07,7.33s-1.82-6.94,1.32-12.38,7.65-8.73,10.07-7.34S133.52,244.67,130.38,250.12Z"/><path class="cls-1" d="M110.79,290.89c-2-2-7.17,0-11.62,4.48a25.17,25.17,0,0,0-2.2,2.51l-.42,1.06a36.6,36.6,0,0,0,6.71,6.16,23.06,23.06,0,0,0,3-2.59C110.76,298.07,112.76,292.86,110.79,290.89Z"/><path class="cls-1" d="M127.63,303.23c-2.79,0-5,5.09-5,11.38,0,.08,0,.15,0,.23a87.86,87.86,0,0,0,9.93,2.55,24.9,24.9,0,0,0,.16-2.78C132.68,308.32,130.42,303.23,127.63,303.23Z"/><path d="M96,299.26a33.54,33.54,0,0,0,6.29,5.9,66.83,66.83,0,0,0,20.2,10.32c11.73,3.78,24,4.56,36.29,4.54A171.27,171.27,0,0,0,189,317.53a69.5,69.5,0,0,0,12-2.94c.74-.28.42-1.49-.34-1.21a61,61,0,0,1-9.13,2.4,156.86,156.86,0,0,1-27.25,2.91c-20.42.57-42.09-1.1-59.33-13.16a46.87,46.87,0,0,1-6-4.92c-.5-.49-1-1-1.45-1.52-.08-.09-.61-.75-.39-.46-.49-.63-1.57,0-1.08.63Z"/><ellipse class="cls-7" cx="80.91" cy="236.3" rx="10.66" ry="9.46"/><path class="cls-1" d="M70.4,237.86l11-11-.49,0c-.31,0-.61,0-.91,0l-9.74,9.74A8.4,8.4,0,0,0,70.4,237.86Z"/><path class="cls-1" d="M72.22,241.78l15-13.08c-.29-.19-.58-.36-.89-.53L71.64,241A9,9,0,0,0,72.22,241.78Z"/><path class="cls-1" d="M75.87,244.64,90.6,232.39a7.4,7.4,0,0,0-.5-.86L74.94,244.15A9.1,9.1,0,0,0,75.87,244.64Z"/><path class="cls-1" d="M80.62,245.75l10.88-8.39a9.28,9.28,0,0,0,.07-1.06c0-.07,0-.14,0-.22l-12.38,9.55A11.34,11.34,0,0,0,80.62,245.75Z"/><path class="cls-7" d="M118,226.84s2,15.4,16.45,20.9,45.2,9.75,57.06,1.84,18.65-32.06,17.66-44.77-7.86-27.74-16-34.41S178.63,158.89,171,156.57s-30.8-5.71-57.35,20.56S76.42,216.88,74.09,226s3.39,19.18,13.14,17.93S107.44,238.28,118,226.84Z"/><path d="M77.46,241.36c1.77,2.18,5.23,3,7.85,3.15A28.26,28.26,0,0,0,100.19,241c10.65-5.52,19.77-14.36,27.2-23.66a107.63,107.63,0,0,0,13.48-21.68c.34-.72-.74-1.36-1.08-.63a106.85,106.85,0,0,1-24.65,33.61A78.11,78.11,0,0,1,102,238.55a31.55,31.55,0,0,1-13.41,4.69c-3.2.26-8,0-10.25-2.76-.51-.63-1.39.26-.89.88Z"/><path d="M175.05,159c.88.35,2.2,1,3.25,1.53a61,61,0,0,1,8,5,54.56,54.56,0,0,1,18.12,22.3A53,53,0,0,1,208.49,209a.63.63,0,0,0,1.25,0,53.25,53.25,0,0,0-11.33-33.67,60.51,60.51,0,0,0-18.65-15.5,37.38,37.38,0,0,0-4.38-2.09c-.75-.29-1.08.92-.33,1.2Z"/><path d="M207.44,195.81a56.8,56.8,0,0,0,6.83-3,50.4,50.4,0,0,0,12.52-8.69c.57-.56-.31-1.44-.89-.88a49.22,49.22,0,0,1-12.26,8.49,54.11,54.11,0,0,1-6.53,2.87c-.75.27-.43,1.47.33,1.21Z"/><path class="cls-1" d="M152.63,177.42s-3.76-5.78-5.49-5.44-2.29,10.14-1.37,9.61S152.63,177.42,152.63,177.42Z"/><path class="cls-1" d="M162.15,177.42s3.76-5.78,5.49-5.44,2.29,10.14,1.37,9.61S162.15,177.42,162.15,177.42Z"/><ellipse class="cls-1" cx="157.45" cy="183.41" rx="12.97" ry="9.87"/><path d="M165.8,180.6a.83.83,0,1,1-.82-.82A.83.83,0,0,1,165.8,180.6Z"/><circle cx="161.53" cy="182.41" r="0.31"/><circle cx="161.58" cy="183.57" r="0.31"/><path d="M162.8,182.89a.31.31,0,1,1-.61,0,.31.31,0,0,1,.61,0Z"/><circle cx="153.9" cy="182.68" r="0.31"/><path d="M153.54,183.85a.31.31,0,1,0,.3-.31A.31.31,0,0,0,153.54,183.85Z"/><circle cx="152.93" cy="183.17" r="0.31"/><circle cx="149.67" cy="180.79" r="0.83"/><path d="M156.44,184.68c-.21,1,0,3.25,1.44,3.25s1.65-2.23,1.45-3.25c-.05-.25-.43-.15-.38.1.14.73.1,2.76-1.07,2.76s-1.21-2-1.06-2.76c.05-.24-.34-.35-.38-.1Z"/><path class="cls-7" d="M159.09,181.87c0,.46-.54.84-1.2.84s-1.19-.38-1.19-.84.53-.85,1.19-.85S159.09,181.4,159.09,181.87Z"/><path class="cls-7" d="M157.69,182.33v1.87a.2.2,0,0,0,.4,0v-1.87a.2.2,0,0,0-.4,0Z"/><path class="cls-4" d="M147.24,118.15s-12.33,4.62-18.76,14.91,1.08,20,6.25,21.8S152,158,157.85,153.59s3.74-31.09,1.82-34.81S148.51,117.06,147.24,118.15Z"/><path class="cls-11" d="M178,106.05h-9.75c-6.48,0-11.78,6-11.78,13.41v15.1c0,.43,0,.85.06,1.26a5.81,5.81,0,0,0-.17,1.39v18.9a6.09,6.09,0,0,0,6.07,6.07h3.87a6.08,6.08,0,0,0,6.06-6.07V148H178c6.47,0,11.78-6,11.78-13.41v-15.1C189.74,112.08,184.43,106.05,178,106.05Z"/><path class="cls-4" d="M155.61,126.25s9.55-3.18,12.45-9.34,2.18-7.49,2.18-7.49,5.38,7.37,13.89,9.18c7,1.5,6.74.46,7.43-1.18.64-1.49,1.07-11.9-9.6-18.31s-22.14-5.77-30,2.21S145,121.87,147.63,125,153.8,129.91,155.61,126.25Z"/><circle class="cls-4" cx="146.51" cy="92.78" r="16.09" transform="translate(-24.08 61.59) rotate(-21.98)"/><ellipse class="cls-1" cx="151.92" cy="129.92" rx="7.76" ry="7.69"/><path class="cls-12" d="M156.8,130.94a6.27,6.27,0,0,0-.24-2A4.49,4.49,0,0,0,154.2,126a5.92,5.92,0,0,0-3.11-.44.71.71,0,0,0-.69.69.69.69,0,0,0,.69.69,7.18,7.18,0,0,1,1.39,0l.14,0c-.17,0,0,0,0,0l.26.05a4.64,4.64,0,0,1,.53.16l.09,0c-.18-.07,0,0,0,0l.2.11a3.34,3.34,0,0,1,.4.25c-.17-.12,0,0,.06.05l.15.14c.1.1.19.21.29.32-.14-.16,0,0,0,0l.11.16c.07.12.14.24.2.36l.08.18c.05.08-.07-.17,0-.05l0,.09c0,.12.09.25.13.37a3.92,3.92,0,0,1,.15.66l0,.14c0,.17,0-.18,0,0l0,.28a3.11,3.11,0,0,1,0,.61.69.69,0,0,0,1.38,0Z"/><circle class="cls-13" cx="172.43" cy="124.39" r="2.2"/><path class="cls-13" d="M184.62,124.07a1.88,1.88,0,1,0,1.87-1.87A1.88,1.88,0,0,0,184.62,124.07Z"/><path class="cls-14" d="M182.52,133.06s-1.11,3.21-3.44,3.43-4.16-2.36-4.29-4.38Z"/><path class="cls-13" d="M182,132.91l-.09.24c.05-.14-.06.13-.08.18s-.13.25-.19.37a5.52,5.52,0,0,1-1.16,1.55,2.43,2.43,0,0,1-2,.68,3.32,3.32,0,0,1-2-1.26,4.6,4.6,0,0,1-1.09-2.56l-.56.56,6.77.83,1,.12a.56.56,0,1,0,0-1.12l-6.77-.83-1-.12a.57.57,0,0,0-.56.56,5.54,5.54,0,0,0,3.52,4.8c2,.61,3.64-.65,4.61-2.25a8.06,8.06,0,0,0,.7-1.45C183.29,132.53,182.21,132.23,182,132.91Z"/><path class="cls-7" d="M162.6,132.47a5.46,5.46,0,1,0,5.46-5.46A5.47,5.47,0,0,0,162.6,132.47Z"/><path class="cls-7" d="M188.27,128.77a3.77,3.77,0,0,1,1,.12v5.66A11.79,11.79,0,0,1,189,137a4.77,4.77,0,0,1-.76.07,4.16,4.16,0,0,1,0-8.31Z"/><polygon class="cls-7" points="180.05 122.19 179.6 129.68 183.17 127.5 180.05 122.19"/><path class="cls-1" d="M338,406.53l-1.42-17.32-17.28,2.47,4.31,17.85S338.07,407.79,338,406.53Z"/><path d="M338.73,406.53l-1.24-15.16-.18-2.16a.79.79,0,0,0-1-.75l-15.13,2.17-2.16.31a.78.78,0,0,0-.54.95l3.78,15.62.54,2.22a.77.77,0,0,0,.74.57c2.62-.31,5.24-.68,7.84-1.12a49.37,49.37,0,0,0,5-1c.82-.22,2.32-.55,2.34-1.63a.77.77,0,0,0-1.54,0c0-.43.33-.39,0-.27l-.45.18a17.59,17.59,0,0,1-1.72.48c-1.59.37-3.2.64-4.81.9q-3.3.54-6.63.93l.75.57-3.78-15.62-.54-2.22-.54.95,15.13-2.17,2.16-.31-1-.74L337,404.36l.18,2.17C337.27,407.51,338.82,407.52,338.73,406.53Z"/><path class="cls-3" d="M341.74,408,348,430.53s1.22,4.1-1.67,4.85-12,4.29-35.8,8.15c-.95.16-19.52,4.5-8.47-8,1.68-1.91,18-16.47,18-16.47s-.14-7.24.1-9.54c.12-1.18.11-1.54,4.23-2.2,5.12-.82,11.34-2,16-1.76C341,405.55,341.2,406,341.74,408Z"/><path d="M323.15,425.91l-5.83-3.12-.84-.45a1.17,1.17,0,1,0-1.18,2l5.83,3.12.84.45a1.19,1.19,0,0,0,1.6-.42,1.17,1.17,0,0,0-.42-1.59Z"/><path d="M318.45,431.51l-6.94-4.09-1-.58a1.17,1.17,0,0,0-1.18,2l6.94,4.09,1,.58a1.17,1.17,0,0,0,1.18-2Z"/><path class="cls-1" d="M328.28,413a6.14,6.14,0,1,0,8.69-.17A6.14,6.14,0,0,0,328.28,413Z"/><path class="cls-4" d="M315.75,389.21s-18.08-48.39-20.91-66.47,13.93-58.75,27.3-75.14,32-2,36.54,6.34-4.33,35.17-8.1,40.12-19.49,14.21-22,25.34c-3.82,17.17,5.78,61.25,7.76,66.9S316.27,390.62,315.75,389.21Z"/><rect class="cls-1" x="310.63" y="383.28" width="32.36" height="11.86" rx="2" transform="translate(-53.36 51.92) rotate(-8.4)"/><path class="cls-4" d="M342.77,390.74c.09,1.47-1,1.63-2.1,1.79l-3,.45-9.77,1.44-10,1.47-3.37.5c-.74.11-1.56.37-2.17-.26s-.68-2.78-.83-3.76c-.22-1.5-.53-3-.66-4.52a1.64,1.64,0,0,1,1.59-1.89c.86-.14,1.72-.26,2.57-.38l19.7-2.91,4-.59c.8-.12,1.84-.46,2.5.21a3,3,0,0,1,.52,1.7l.41,2.78.61,4.13c.12.79,1.32.46,1.21-.33l-.61-4.13a26.65,26.65,0,0,0-.62-4c-.82-2.62-3.88-1.67-5.85-1.38l-21.45,3.17c-1.8.27-4.89.15-5.69,2.17-.45,1.14,0,2.72.21,3.88.25,1.66.47,3.33.74,5a2.72,2.72,0,0,0,3.12,2.46c.61-.08,1.23-.18,1.85-.28l9.82-1.45L338,394.18c2.22-.33,6.24-.2,6-3.44C344,389.94,342.72,389.93,342.77,390.74Z"/><path class="cls-1" d="M432,255.09c-.32-4.87-1.91-25.32-6.51-25.74s-10.78,2.86-10.78,2.86S413,245.34,413,248.94s.38,5.41,1.78,4.45,2.78-6.67,2.78-6.67,1.8,13.77,3.49,14.62,2.12.15,1.5-7.3a28,28,0,0,0,1.23,5.39c.93,2.13.82,2.46,1.56,2.33s.81-3.55.77-4.47.17.45.4,1.32.87,3,1.44,3.18.91-1,.94-1.85-.15-4.41-.15-4.41h0c.44,2.54,1,4.93,1.81,5.08C431.88,260.85,432.34,260,432,255.09Z"/><path class="cls-10" d="M422.27,251.56c1,9.82.43,10.63-1.27,9.78s-3.49-14.62-3.49-14.62-1.38,5.72-2.78,6.67-1.78-.84-1.78-4.45,1.78-16.73,1.78-16.73,6.18-3.28,10.78-2.86,6.19,20.87,6.51,25.74-.14,5.76-1.52,5.51-2-6.78-2.61-9.75"/><path class="cls-10" d="M425.51,251s1.23,9.56,0,10.66-1.92-2.75-2.95-6.81"/><path class="cls-10" d="M428.41,253.63s1,6.78,0,8-2.22-3.3-2.46-6.09"/><path class="cls-1" d="M270.12,88.32c-1.7-.21-5.44,8.72-5.44,8.72l-.28.13c-.19-1-.42-2-.53-3-.2-1.86-.94-9.31-1.1-11.6s-.83-2.41-1.59-2.49-1.27,1.79-1.27,1.79l-.46-.81a1.63,1.63,0,0,0-1.38-.25c-.89.18-1.07,1.68-1.07,1.68l-.8-.78a3,3,0,0,0-1.36.73,10.78,10.78,0,0,0-.67,3.24l-.09-.24c-.56-.79-1.76-.33-2.33,2.84s-.14,19.28.87,23.67,11.93.57,13.12-.29,2.68-6.07,4.38-13.56S271.81,88.54,270.12,88.32Z"/><path class="cls-8" d="M260.09,102.52s-.29-3.34,4.59-5.48c0,0,3.74-8.93,5.44-8.72s1.69,2.34,0,9.82-3.2,12.7-4.38,13.56-12.12,4.68-13.12.29-1.43-20.49-.87-23.67,1.77-3.63,2.33-2.84"/><path class="cls-8" d="M253.32,94.75s.92-11.64,1.61-12.43c.88-1,2-.66,2.07,1"/><path class="cls-8" d="M256.34,94.75s0-12.92,1.49-13.77,1.76,0,2,1.62"/><path class="cls-8" d="M258.89,94.26s-.07-12.93,1.9-13.91,1.91,1.43,2.12,4.31S264.18,97,264.18,97"/><path class="cls-1" d="M312.14,186.24s-28.88-1-42.72-19.52-18.92-40.78-17-50.56,11.3-10.29,15-7.78,12.43,25.11,23.17,31.6,19.79,7.45,36.28,6.69S319.56,189.55,312.14,186.24Z"/><path class="cls-3" d="M269.41,110.71a9,9,0,0,0-2-2.33c-3.67-2.51-13-2-15,7.78q-.16.86-.27,1.83C254.75,115.72,260.12,112.09,269.41,110.71Z"/><path d="M312.14,185.62c-13.74-.51-29.13-5.55-38.91-15.42-8.6-8.68-14.43-21.29-17.82-32.87-2.21-7.53-6.06-21.67,1.4-27.57,2.89-2.29,7.87-3.08,10.81-.41,2.47,2.24,4,6.22,5.61,9.09,4.14,7.31,8.49,15.64,15.31,20.85,6.55,5,15,7.34,23.11,8,5.26.41,10.66-.51,15.86,0,3.08.3,4.32,2.27,4.46,5.27.32,7-3.71,14.65-7.12,20.52-1.74,3-7.84,14.26-12.54,12.59-.75-.27-1.06.91-.33,1.17,4,1.44,8.32-4.85,10.22-7.44a62.12,62.12,0,0,0,10.1-20.54c1-3.8,2.19-10.29-2.38-12.31-3.93-1.74-10-.17-14.15-.28-6.6-.18-13.14-1.13-19.21-3.82-11.11-4.92-16.79-14.92-22.54-25.09-3-5.37-5.39-11.67-12.68-10.76-9.25,1.15-10.42,11.22-9.64,18.72,1.25,12,5.94,23.82,12.1,34.1,6.71,11.21,15.48,18.91,27.86,23.29a70,70,0,0,0,20.48,4.16C312.93,186.88,312.93,185.65,312.14,185.62Z"/><path class="cls-1" d="M433,315.16l-17.26,2.08,3.14,17.18,17.66-5S434.21,315,433,315.16Z"/><path d="M433,314.39l-17.26,2.08a.79.79,0,0,0-.74,1l3.13,17.17a.78.78,0,0,0,.95.54l15.45-4.36,2.22-.63a.8.8,0,0,0,.54-.95c-.41-2.58-.87-5.15-1.41-7.7a46.1,46.1,0,0,0-1.21-4.9c-.25-.77-.63-2.25-1.67-2.23a.77.77,0,0,0,0,1.54,1.19,1.19,0,0,1-.31-.09s0-.06,0,.07a3.23,3.23,0,0,0,.24.5,14,14,0,0,1,.52,1.67c.44,1.6.79,3.23,1.11,4.87q.66,3.32,1.2,6.68l.54-.95-15.44,4.37-2.23.62.95.54L416.44,317l-.75,1L433,315.93C433.92,315.81,433.93,314.27,433,314.39Z"/><path class="cls-3" d="M434.26,311.33l22.29-7.11s4.05-1.38,4.9,1.48,4.75,11.85,9.52,35.46c.2.95,5.25,19.34-7.72,8.78-2-1.61-17.14-17.39-17.14-17.39s-7.23.42-9.54.27c-1.19-.08-1.55-.05-2.37-4.15-1-5.09-2.45-11.26-2.36-15.9C431.85,312.19,432.33,311.94,434.26,311.33Z"/><path d="M452.9,329.18l-2.9,5.95-.41.85a1.2,1.2,0,0,0,.41,1.6,1.18,1.18,0,0,0,1.6-.42l2.9-6,.41-.85a1.2,1.2,0,0,0-.41-1.6,1.18,1.18,0,0,0-1.6.42Z"/><path d="M458.67,333.66l-3.81,7.07-.55,1a1.17,1.17,0,1,0,2,1.18l3.81-7.07.55-1a1.17,1.17,0,0,0-2-1.18Z"/><path class="cls-1" d="M439.81,324.58a6.14,6.14,0,1,0-.49-8.67A6.15,6.15,0,0,0,439.81,324.58Z"/><path class="cls-4" d="M338,243.65s-1.59,52.68,8,81.14,23.16,29,42.65,22.24,26.11-8.73,26.11-8.73l-4.33-20.64S396.15,321.78,387,320s.09-51.49,0-59.12.47-19.56-5.74-25S336.45,236.59,338,243.65Z"/><path d="M337.34,243.65c-.21,6.8-.12,13.62.05,20.42a314,314,0,0,0,3.43,41.32,121.38,121.38,0,0,0,4.46,19.3c2.25,6.75,5.14,13.67,9.91,19.06a21.36,21.36,0,0,0,12.56,7.17c5.12.82,10.35-.1,15.29-1.47,7.36-2,14.53-4.87,21.78-7.29,3.23-1.08,6.48-2.11,9.73-3.16l.34-.1a.63.63,0,0,0-.33-1.21c-9,2.67-17.8,5.9-26.66,8.94-9.56,3.27-20.95,5.9-29.4-1.36-5-4.33-8.15-10.62-10.51-16.72a107.83,107.83,0,0,1-5.31-19.61,284.27,284.27,0,0,1-3.93-41.3c-.27-7.88-.17-15.75-.17-23.63,0-.12,0-.24,0-.36a.63.63,0,0,0-1.25,0Z"/><path d="M366.53,247.6a14.29,14.29,0,0,0,1.31,4.79,26.13,26.13,0,0,0,8,9.95,42.74,42.74,0,0,0,9.69,5.6c.74.31,1.37-.77.64-1.08-7.77-3.3-16-9.08-18.09-17.79a8.52,8.52,0,0,1-.25-1.47c0-.8-1.29-.8-1.25,0Z"/><rect class="cls-1" x="408.8" y="310.15" width="11.86" height="32.36" rx="2" transform="translate(-43.23 64.09) rotate(-8.4)"/><path class="cls-4" d="M416.25,310.37c1.48-.09,1.64,1,1.8,2.1l.45,3,1.44,9.77,1.47,10,.5,3.36c.11.74.36,1.56-.26,2.17-.78.76-2.78.69-3.76.83-1.5.22-3,.53-4.52.67a1.65,1.65,0,0,1-1.89-1.6c-.14-.85-.26-1.71-.38-2.57l-2.91-19.7-.59-4c-.12-.8-.47-1.84.21-2.49a3,3,0,0,1,1.7-.53l2.78-.41,4.13-.61c.79-.11.46-1.32-.33-1.2l-4.14.61a26.3,26.3,0,0,0-4,.61c-2.62.82-1.67,3.88-1.38,5.85l3.17,21.46c.27,1.8.15,4.88,2.17,5.68,1.14.45,2.72,0,3.88-.21,1.66-.25,3.33-.46,5-.74a2.71,2.71,0,0,0,2.46-3.11c-.08-.62-.19-1.24-.28-1.85l-1.45-9.82-1.84-12.47c-.33-2.23-.2-6.25-3.45-6C415.46,309.18,415.45,310.43,416.25,310.37Z"/><path class="cls-1" d="M383.26,183.48s6.21,55.93,3.25,62.29-24.72,11-46.05,9.46-26.69-9.18-30.79-25-3.95-40.39-1.06-59.88,17.76-26.84,17.76-26.84,19.59-9.18,48.27-3,53.25,29.21,59,43.2,4,33.28,1.69,41.33-7.22,10-14.31,10.84-12.59-3.22-16.83-19.53S392.43,183.64,369,177.13"/><path class="cls-12" d="M382.63,183.48q1.65,14.88,2.82,29.81c.56,7.07,1.06,14.15,1.2,21.24.05,2.55.08,5.11-.11,7.65-.14,1.73-.29,3.3-1.49,4.59-2.64,2.8-7,4.08-10.59,5.07a88.32,88.32,0,0,1-17.33,2.78,112,112,0,0,1-19.38-.25,42.37,42.37,0,0,1-13.21-3.19,21,21,0,0,1-8-6.26,32.22,32.22,0,0,1-4.73-9.56c-3.32-10-4.36-20.66-4.62-31.17-.15-6.09,0-12.19.4-18.28a131.54,131.54,0,0,1,2-17.71,37,37,0,0,1,12.56-21.08,22.34,22.34,0,0,1,6.42-3.84,74.11,74.11,0,0,1,21.25-4.15,88.57,88.57,0,0,1,35.29,5.05,98.49,98.49,0,0,1,28.69,16.64c6.75,5.57,13.28,12.1,17.59,19.8,4.95,8.85,5.79,19.88,5.34,29.82A66.62,66.62,0,0,1,435,223.56c-1,4.24-3,8.14-7.18,10a22,22,0,0,1-6.54,1.61,12.56,12.56,0,0,1-4.15-.07c-3.2-.68-5.55-3-7.24-5.69-2.83-4.46-4.17-9.65-5.54-14.69a83.53,83.53,0,0,0-4.15-11.91,45.41,45.41,0,0,0-16.74-20,53.1,53.1,0,0,0-14.38-6.27.63.63,0,0,0-.33,1.21c10.29,2.89,19.53,8.48,25.7,17.35a54.7,54.7,0,0,1,6.08,11.8c1.76,4.67,2.8,9.52,4.34,14.26,2.13,6.57,5.78,15,13.76,15.41a20.47,20.47,0,0,0,11.24-2.65c3.72-2.31,5.48-6.35,6.45-10.47a75.57,75.57,0,0,0,.58-30.33,42.16,42.16,0,0,0-4.56-13.32,58.11,58.11,0,0,0-7.07-9.66c-14.79-16.78-35.85-28.59-58.06-31.56A88.34,88.34,0,0,0,336,139.81a42.31,42.31,0,0,0-10.23,3.3,34,34,0,0,0-11.89,11.38c-6.1,9.28-6.85,20.64-7.57,31.42a167.75,167.75,0,0,0,1.11,36.46,81.34,81.34,0,0,0,3.33,13.84,32.5,32.5,0,0,0,4.92,9.65c5.05,6.46,13.14,8.7,20.95,9.63a108.2,108.2,0,0,0,20,.41,92.51,92.51,0,0,0,17.43-2.67c3.85-1,8.12-2.33,11.19-5a6.86,6.86,0,0,0,2.36-4.89c.68-5.72.21-11.65-.11-17.38-.72-13.36-2-26.69-3.41-40-.09-.83-.17-1.66-.27-2.5s-1.34-.8-1.25,0Z"/><path class="cls-3" d="M349.08,248.6c-17.27.1-28.2-3-34.93-6.24,4.33,7.72,11.43,11.79,26.31,12.87,21.33,1.55,43.08-3.11,46.05-9.46a7.93,7.93,0,0,0,.51-2.21C379.7,246,367.68,248.5,349.08,248.6Z"/><path class="cls-3" d="M408.82,228.78c3.41,6,7.44,7.61,12.17,7.07,6.6-.76,11.29-2.53,13.79-9.26C421.72,229.76,413.52,229.57,408.82,228.78Z"/><path class="cls-12" d="M382.63,183.48q1.65,14.88,2.82,29.81c.56,7.07,1.06,14.15,1.2,21.24.05,2.55.08,5.11-.11,7.65-.14,1.73-.29,3.3-1.49,4.59-2.64,2.8-7,4.08-10.59,5.07a88.32,88.32,0,0,1-17.33,2.78,112,112,0,0,1-19.38-.25,42.37,42.37,0,0,1-13.21-3.19,21,21,0,0,1-8-6.26,32.22,32.22,0,0,1-4.73-9.56c-3.32-10-4.36-20.66-4.62-31.17-.15-6.09,0-12.19.4-18.28a131.54,131.54,0,0,1,2-17.71,37,37,0,0,1,12.56-21.08,22.34,22.34,0,0,1,6.42-3.84,74.11,74.11,0,0,1,21.25-4.15,88.57,88.57,0,0,1,35.29,5.05,98.49,98.49,0,0,1,28.69,16.64c6.75,5.57,13.28,12.1,17.59,19.8,4.95,8.85,5.79,19.88,5.34,29.82A66.62,66.62,0,0,1,435,223.56c-1,4.24-3,8.14-7.18,10a22,22,0,0,1-6.54,1.61,12.56,12.56,0,0,1-4.15-.07c-3.2-.68-5.55-3-7.24-5.69-2.83-4.46-4.17-9.65-5.54-14.69a83.53,83.53,0,0,0-4.15-11.91,45.41,45.41,0,0,0-16.74-20,53.1,53.1,0,0,0-14.38-6.27.63.63,0,0,0-.33,1.21c10.29,2.89,19.53,8.48,25.7,17.35a54.7,54.7,0,0,1,6.08,11.8c1.76,4.67,2.8,9.52,4.34,14.26,2.13,6.57,5.78,15,13.76,15.41a20.47,20.47,0,0,0,11.24-2.65c3.72-2.31,5.48-6.35,6.45-10.47a75.57,75.57,0,0,0,.58-30.33,42.16,42.16,0,0,0-4.56-13.32,58.11,58.11,0,0,0-7.07-9.66c-14.79-16.78-35.85-28.59-58.06-31.56A88.34,88.34,0,0,0,336,139.81a42.31,42.31,0,0,0-10.23,3.3,34,34,0,0,0-11.89,11.38c-6.1,9.28-6.85,20.64-7.57,31.42a167.75,167.75,0,0,0,1.11,36.46,81.34,81.34,0,0,0,3.33,13.84,32.5,32.5,0,0,0,4.92,9.65c5.05,6.46,13.14,8.7,20.95,9.63a108.2,108.2,0,0,0,20,.41,92.51,92.51,0,0,0,17.43-2.67c3.85-1,8.12-2.33,11.19-5a6.86,6.86,0,0,0,2.36-4.89c.68-5.72.21-11.65-.11-17.38-.72-13.36-2-26.69-3.41-40-.09-.83-.17-1.66-.27-2.5s-1.34-.8-1.25,0Z"/><path class="cls-3" d="M352.68,145.36a.78.78,0,0,1,1.4-.46l5.72,5.1c.61.54.48,1.19-.29,1.44l-7.28,2.41c-.77.25-1.27-.19-1.1-1Z"/><path class="cls-3" d="M319.92,160.82c.17-.8.8-1,1.4-.47l5.72,5.1a.78.78,0,0,1-.3,1.44l-7.27,2.41c-.77.26-1.27-.18-1.1-1Z"/><path class="cls-3" d="M262.72,117.78c.16-.8.79-1,1.4-.46l5.72,5.09a.78.78,0,0,1-.3,1.45l-7.27,2.4c-.77.26-1.27-.18-1.1-1Z"/><path class="cls-3" d="M267.55,138.59c.76-.29,1.27.14,1.13.94l-1.29,7.55c-.13.8-.75,1-1.38.51l-5.9-4.89a.78.78,0,0,1,.25-1.45Z"/><path class="cls-3" d="M286.11,142.87c.77-.28,1.28.15,1.14.95L286,151.37c-.13.8-.75,1-1.38.51l-5.9-4.89a.78.78,0,0,1,.25-1.45Z"/><path class="cls-3" d="M292.76,166.18c.81.09,1.08.7.6,1.35l-4.53,6.18a.78.78,0,0,1-1.47-.16l-3.09-7c-.32-.74.07-1.28.87-1.19Z"/><path class="cls-3" d="M311,154.85c.81.09,1.08.7.6,1.35l-4.53,6.18a.78.78,0,0,1-1.47-.16l-3.09-7c-.32-.74.07-1.28.87-1.19Z"/><path class="cls-3" d="M346.67,169a.78.78,0,0,1,1.47.16l3.09,7c.32.74-.07,1.28-.88,1.19l-7.61-.83c-.81-.09-1.08-.7-.6-1.35Z"/><path class="cls-3" d="M318.7,186.39c.13-.8.75-1,1.38-.52l5.9,4.9a.78.78,0,0,1-.25,1.45l-7.18,2.66c-.76.28-1.28-.14-1.14-.94Z"/><path class="cls-3" d="M319.88,215.65c.54-.61,1.19-.49,1.45.28l2.49,7.25c.26.77-.17,1.27-1,1.11l-7.52-1.47c-.8-.15-1-.78-.48-1.39Z"/><path class="cls-3" d="M337.71,199.17a.78.78,0,0,1,1.48,0l3.83,6.64c.4.7.07,1.28-.74,1.28h-7.66c-.81,0-1.14-.58-.74-1.28Z"/><path class="cls-3" d="M360,185.59a.78.78,0,0,1,1.48,0l3.83,6.63c.41.71.07,1.28-.74,1.28h-7.66c-.81,0-1.14-.57-.74-1.28Z"/><path class="cls-3" d="M371,161.87a.78.78,0,0,1,1.47,0l3.84,6.64c.4.7.07,1.27-.74,1.27h-7.66c-.82,0-1.15-.57-.74-1.27Z"/><path class="cls-3" d="M391.6,149.87c.41-.71,1.07-.71,1.47,0l3.84,6.63c.4.71.07,1.28-.74,1.28h-7.66c-.82,0-1.15-.57-.74-1.28Z"/><path class="cls-3" d="M391.76,177.45c-.14-.79.37-1.22,1.13-.94l7.19,2.65c.76.29.88.94.25,1.46l-5.89,4.9a.78.78,0,0,1-1.38-.51Z"/><path class="cls-3" d="M417.32,182.17c-.13-.8.38-1.23,1.14-.95l7.19,2.66a.78.78,0,0,1,.25,1.45l-5.9,4.9c-.62.52-1.24.29-1.38-.51Z"/><path class="cls-3" d="M406.73,201.37c-.14-.8.37-1.22,1.13-.94l7.19,2.65a.78.78,0,0,1,.25,1.46l-5.89,4.9c-.62.52-1.24.29-1.38-.51Z"/><path class="cls-3" d="M426.77,215.29c.65-.48,1.26-.22,1.35.59l.87,7.61c.09.81-.44,1.2-1.18.88l-7-3.06a.78.78,0,0,1-.17-1.46Z"/><path class="cls-3" d="M373.23,203.9a.78.78,0,0,1,1.46-.2l4.72,6c.5.64.25,1.25-.55,1.37l-7.59,1.07c-.8.12-1.21-.4-.91-1.16Z"/><path class="cls-3" d="M367.54,231.15a.78.78,0,0,1,1.46-.21l4.73,6c.5.64.25,1.26-.55,1.37l-7.59,1.08c-.8.11-1.21-.41-.91-1.16Z"/><path class="cls-3" d="M352,216.83a.78.78,0,0,1,1.45.28l2.49,7.25c.26.77-.18,1.27-1,1.11L347.49,224c-.8-.15-1-.78-.48-1.39Z"/><path class="cls-3" d="M333.3,234.75a.78.78,0,0,1,1.48.06l3.54,6.8c.37.72,0,1.28-.8,1.24l-7.65-.33c-.81,0-1.12-.62-.68-1.31Z"/><ellipse class="cls-3" cx="334.54" cy="142.03" rx="9.77" ry="9.11"/><path class="cls-4" d="M341.27,126.32s2.61-.25,3.7-1.39-.57-8.48-1.39-8.18S341.32,126.05,341.27,126.32Z"/><path class="cls-1" d="M341.22,126.89a12.3,12.3,0,0,0,2.9-8.46l-.6-13.9a12.39,12.39,0,0,0-12.88-11.81l-10.21.45A12.39,12.39,0,0,0,308.62,106l.61,13.91a12.38,12.38,0,0,0,12.87,11.8l3.92-.17.34,7.73a6.6,6.6,0,0,0,6.85,6.29l2.31-.1a6.6,6.6,0,0,0,6.28-6.86l-.47-10.85A5.53,5.53,0,0,0,341.22,126.89Z"/><path d="M341.67,127.33a13.33,13.33,0,0,0,3.07-7.66,31.66,31.66,0,0,0-.08-3.23l-.44-10.27c-.16-3.6-.87-6.91-3.34-9.71a13.45,13.45,0,0,0-10.95-4.33c-3.08.13-6.15.25-9.23.4a13.26,13.26,0,0,0-10.76,6.15c-1.9,3-2,6.29-1.84,9.72l.44,10.22a18.17,18.17,0,0,0,.6,4.53,13.05,13.05,0,0,0,12.27,9.24c1.53,0,3.08-.12,4.61-.18l-.62-.63c.1,2.42.2,4.85.31,7.27.17,3.65,2.52,6.82,6.3,7.31,3.19.42,6.87-.19,8.92-2.85,1.84-2.38,1.48-5.15,1.36-7.93a80.76,80.76,0,0,0-.46-8.66c-.13-.79-1.33-.45-1.21.34a56.92,56.92,0,0,1,.33,6.4,39.26,39.26,0,0,1,.19,6.13,6,6,0,0,1-3.79,4.9,12,12,0,0,1-4,.47c-3.73.11-6.23-2.65-6.38-6.25l-.31-7.13A.64.64,0,0,0,326,131c-3.49.15-6.89.5-10.08-1.27a12,12,0,0,1-6.1-10.1c-.14-2.85-.25-5.7-.37-8.56-.12-2.55-.52-5.37,0-7.89a11.89,11.89,0,0,1,10.25-9.3c2.64-.27,5.32-.25,8-.36,3.41-.15,6.63-.26,9.68,1.64a12.07,12.07,0,0,1,5.54,9.95l.43,9.87c0,1.13.1,2.27.14,3.4a12,12,0,0,1-2.71,8.11C340.28,127.07,341.16,128,341.67,127.33Z"/><path class="cls-4" d="M329.3,94.33a18.13,18.13,0,0,1-8.11,7.6c-5.93,2.94-13.56,5.75-17.25.75s.83-8.28.83-8.28-5-6.84-1.74-15,17-14.25,27.66-10.24,11.6,11,11.6,11,4.67-2.29,11.81,4.25,4.25,21.37,1.15,26.67c-1.52,2.61-8.78,12.8-10.42,14-1,.71-.24-2.46-.16-5.09a8,8,0,0,0-.69-3.22l0-9.22S330.94,107.07,329.3,94.33Z"/><circle class="cls-1" cx="349.83" cy="113.03" r="8.56" transform="translate(182.37 440.31) rotate(-80.81)"/><path d="M356,108.14A7.86,7.86,0,0,1,355,119a8,8,0,0,1-10.95-.55c-.56-.57-1.45.31-.88.89a9.32,9.32,0,0,0,10.31,2.07,9,9,0,0,0,3.38-14.1c-.51-.63-1.38.26-.89.88Z"/><path class="cls-12" d="M346,114.45a4.87,4.87,0,0,1,0-.54,5.78,5.78,0,0,1,0-.58,1.1,1.1,0,0,0,0-.18c0-.1,0,.24,0,0s0-.25.07-.37a5.23,5.23,0,0,1,.23-.77.36.36,0,0,1,0-.11c.05-.14-.09.18,0,0l.08-.18c.07-.13.14-.26.22-.39l.13-.2.05-.07c.09-.13-.13.15,0,0s.21-.24.32-.35l.18-.16.09-.07s-.17.12,0,0a4.12,4.12,0,0,1,.45-.27,2.1,2.1,0,0,1,.26-.13c-.2.09,0,0,0,0l.2-.07a4.55,4.55,0,0,1,.66-.17l.15,0c.21,0-.11,0,.06,0s.26,0,.39,0c.32,0,.63,0,.94,0a.79.79,0,0,0,.79-.79.81.81,0,0,0-.79-.8,5.63,5.63,0,0,0-5,2,6.18,6.18,0,0,0-1.09,3.43,4.45,4.45,0,0,0,0,.73.8.8,0,0,0,1.59,0Z"/><path class="cls-13" d="M329.19,108.28a2.3,2.3,0,1,1-2.4-2.2A2.3,2.3,0,0,1,329.19,108.28Z"/><path class="cls-13" d="M314.11,108.59a2,2,0,1,1-2.05-1.88A2,2,0,0,1,314.11,108.59Z"/><path class="cls-14" d="M316.72,117.92s1.3,3.32,3.75,3.44,4.26-2.67,4.3-4.79Z"/><path class="cls-13" d="M316.12,118.08a7.14,7.14,0,0,0,2.47,3.26,3.65,3.65,0,0,0,3,.51,4.87,4.87,0,0,0,2.59-1.89,6.13,6.13,0,0,0,1.19-3.39.62.62,0,0,0-.78-.59l-7,1.17-1,.17c-.78.13-.45,1.32.33,1.19l7-1.17,1-.17-.78-.6a4.55,4.55,0,0,1-2.64,4c-1.56.56-2.85-.55-3.64-1.8-.16-.25-.31-.52-.45-.79l-.12-.27c-.06-.13.06.14,0,0a.64.64,0,0,0-.76-.43A.63.63,0,0,0,316.12,118.08Z"/><polygon class="cls-7" points="317.93 106.46 318.74 114.28 314.9 112.16 317.93 106.46"/><circle class="cls-7" cx="331.84" cy="116.64" r="5.73" transform="translate(20.5 280.32) rotate(-47.1)"/><path class="cls-7" d="M310.57,113.44a3.75,3.75,0,0,0-1,.17l.26,5.93a12,12,0,0,0,.39,2.57,4.31,4.31,0,0,0,4.9-4.5A4.36,4.36,0,0,0,310.57,113.44Z"/></g></svg>
